Format : AVI
Format/Info : Audio Video Interleave
File size : 734 MiB
Duration : 1h 20mn
Overall bit rate : 1 269 Kbps
Writing library : VirtualDub build 32842/release

Video
ID : 0
Format : MPEG-4 Visual
Format profile : Advanced Simple@L5
Format settings, BVOP : 2
Format settings, QPel : No
Format settings, GMC : No warppoints
Format settings, Matrix : Default (H.263)
Muxing mode : Packed bitstream
Codec ID : XVID
Codec ID/Hint : XviD
Duration : 1h 20mn
Bit rate : 1 131 Kbps
Width : 672 pixels
Height : 282 pixels
Display aspect ratio : 2.40:1
Frame rate : 25.000 fps
Color space : YUV
Chroma subsampling : 4:2:0
Bit depth : 8 bits
Scan type : Progressive
Compression mode : Lossy
Bits/(Pixel*Frame) : 0.239
Stream size : 654 MiB (89%)
Writing library : XviD 64

Audio
ID : 1
Format : MPEG Audio
Format version : Version 1
Format profile : Layer 3
Mode : Joint stereo
Mode extension : MS Stereo
Codec ID : 55
Codec ID/Hint : MP3
Duration : 1h 20mn
Bit rate mode : Constant
Bit rate : 128 Kbps
Channel(s) : 2 channels
Sampling rate : 44.1 KHz
Compression mode : Lossy
Stream size : 74.0 MiB (10%)
Alignment : Split accross interleaves
Interleave, duration : 40 ms (1.00 video frame)
Interleave, preload duration : 500 ms
Writing library : LAME3.98r
Encoding settings : -m j -V 4 -q 2 -lowpass 17 -b 128








 
http://www.imdb.com/title/tt0448694/




Ratings: 6.7/10 from 440 users Metascore: 65/100
Reviews: 12 user | 24 critic | 23 from Metacritic.com

A story about the events leading up to the sword fighting cat's meeting with Shrek and his friends.
Director:
Chris Miller
Writers:
Charles Perrault (character), Brian Lynch, and 3 more credits »
Stars:
Antonio Banderas, Salma Hayek and Zach Galifianakis



vlcsnap2011103005h46m59.png

vlcsnap2011103005h48m04.png

vlcsnap2011103005h06m18.png

vlcsnap2011103005h05m26.png






Source Used


Reason for READNFO

Check out the sample included as it shows pretty much the flaws to the vid

1 Bit on the dark side and 2 Bit of an autofocus issue

Kept the file size down as much as possible as dont believe the vid needs to be bigger or benefits from being bigger

Denoised,deinterlaced,changed the saturation and tried to brighten the vid up as much as possible using the levels filter

Check that sample out ...........kids do moan ........they used to be oh so grateful





Enjoy





Greetz to IMAGiNE,Flawl3ss,BDK,Ez,CreWsaDe,TaRiQ786,ETRG,BHRG,iLLUMiNATi,ViSUALiSE,MiSTERE






